<?xml version="1.0" standalone="no"?>
<!DOCTYPE svg PUBLIC "-//W3C//DTD SVG 20010904//EN"
 "http://www.w3.org/TR/2001/REC-SVG-20010904/DTD/svg10.dtd">
<svg version="1.0" xmlns="http://www.w3.org/2000/svg"
 width="512.000000pt" height="512.000000pt" viewBox="0 0 512.000000 512.000000"
 preserveAspectRatio="xMidYMid meet">

<g transform="translate(0.000000,512.000000) scale(0.100000,-0.100000)"
fill="#000000" stroke="none">
<path d="M2315 5094 c-405 -68 -765 -302 -989 -643 -74 -112 -94 -151 -142
-268 -129 -321 -137 -705 -23 -1030 91 -258 263 -501 468 -662 44 -35 78 -67
76 -71 -3 -4 -33 -18 -67 -30 -99 -37 -294 -132 -397 -194 -341 -205 -638
-498 -856 -841 -74 -117 -183 -341 -233 -480 -44 -121 -93 -310 -117 -450 -20
-113 -41 -385 -32 -408 6 -16 24 -17 199 -15 l193 3 2 45 c27 502 168 894 456
1275 79 103 279 303 382 382 383 290 843 452 1287 453 247 1 463 49 673 150
293 142 525 368 673 657 162 317 204 683 117 1033 -42 166 -101 299 -201 451
-226 344 -588 578 -999 644 -111 18 -360 18 -470 -1z m415 -395 c438 -63 807
-428 885 -876 64 -368 -70 -746 -352 -994 -377 -331 -942 -357 -1339 -61 -276
206 -428 491 -441 827 -9 241 44 437 175 634 238 361 631 533 1072 470z"/>
<path d="M3880 1660 l0 -420 -420 0 -420 0 2 -197 3 -198 417 -3 418 -2 2
-418 3 -417 198 -3 197 -2 0 420 0 420 420 0 420 0 0 200 0 200 -420 0 -420 0
0 420 0 420 -200 0 -200 0 0 -420z"/>
</g>
</svg>
