<svg width="299" height="330" viewBox="0 0 299 330" fill="none" xmlns="http://www.w3.org/2000/svg">
<path d="M101.002 7.48157C95.7648 12.7187 93.5203 19.8262 93.5203 30.6746C93.5203 44.8897 91.6499 47.8823 71.4495 65.8382C45.2638 89.7794 37.7822 105.865 34.7895 146.266C32.9191 171.703 31.4228 176.566 23.5671 181.429C4.48897 194.148 0 207.989 0 252.879C0 298.517 1.87041 303.006 21.3226 303.006C31.0487 303.006 34.7895 305.25 38.9044 313.854C42.2712 319.839 47.5083 325.45 50.5009 326.947C53.8677 328.069 99.5056 329.191 151.503 329.191H246.519L256.994 316.098C265.223 305.998 270.087 303.006 279.439 303.006C297.394 303.006 300.387 294.028 298.517 247.268C296.646 203.874 291.783 191.155 273.079 181.429C263.353 176.192 262.605 174.696 261.109 142.525C259.612 113.721 258.116 106.613 248.39 91.2757C242.405 81.1755 230.434 68.0827 221.83 61.7233C207.615 51.6231 206.119 49.0045 206.119 34.4154C205.745 22.4448 203.5 16.0854 196.393 9.35196C187.789 0.748108 184.796 -6.10352e-05 147.762 -6.10352e-05C113.347 -6.10352e-05 107.361 1.12219 101.002 7.48157ZM190.407 16.4595C193.026 19.4521 194.522 26.5597 193.774 32.1709L192.652 42.2711L149.632 41.897L106.613 41.5229L105.491 29.5523C104.743 22.4448 106.239 16.4595 109.232 14.5891C111.85 12.7187 130.18 11.2224 150.007 11.2224C176.94 11.2224 187.415 12.7187 190.407 16.4595ZM201.63 61.7233C224.449 72.9457 243.153 96.1388 249.512 120.828C254.749 141.777 256.246 222.952 251.382 225.945C249.512 227.067 234.923 224.075 218.463 219.96C178.437 209.111 117.836 209.485 78.557 219.96C63.2197 224.449 49.0046 226.319 47.5083 224.823C45.6379 222.952 44.8897 198.263 45.6379 169.833C47.1342 112.972 51.2491 98.7573 73.694 77.8088C94.2684 58.3566 110.728 52.7454 148.884 52.3713C178.437 52.3713 186.292 53.8676 201.63 61.7233ZM33.6673 241.282V291.783H22.0708H10.4743L11.9706 249.138C12.7188 213.6 14.2151 205.37 20.2004 198.637C24.3153 194.148 28.8042 190.781 30.6746 190.781C32.171 190.781 33.6673 213.6 33.6673 241.282ZM278.69 199.759C285.424 209.859 290.661 265.972 286.546 282.057C284.676 290.287 282.057 292.157 273.827 291.035L263.727 289.913L262.605 245.397C262.231 220.708 262.605 198.263 263.353 195.644C266.346 188.163 272.331 189.659 278.69 199.759ZM216.219 230.06C254.375 239.038 254.375 239.038 254.375 272.705C254.375 295.898 252.879 304.128 247.268 310.861C240.16 319.465 239.786 319.465 150.381 319.839C40.7748 319.839 44.8897 321.71 44.8897 274.95C44.8897 254.749 46.3861 242.779 49.7528 240.16C53.8677 236.793 95.3907 226.693 121.576 222.952C139.532 220.334 190.781 224.449 216.219 230.06Z" fill="black"/>
<path d="M130.18 93.5202C126.813 95.7647 122.325 102.872 119.706 109.98C111.85 134.669 130.18 156.366 155.244 151.877C191.155 145.143 185.544 89.4053 148.884 89.7794C142.151 89.7794 133.547 91.6498 130.18 93.5202ZM166.466 109.606C173.948 120.08 173.574 124.195 164.596 133.921C155.244 143.647 143.273 144.395 133.921 135.791C124.569 127.187 125.691 114.095 136.54 105.491C147.388 96.8869 158.61 98.3832 166.466 109.606Z" fill="black"/>
</svg>
