<svg id="Capa_1" enable-background="new 0 0 512 512" height="512" viewBox="0 0 512 512" width="512" xmlns="http://www.w3.org/2000/svg"><g><g><path d="m181.409 406.17h43.68 61.88 43.68l-20.55 78.145h-111.069z" fill="#733e2b"/><path d="m339.469 458.12c17.56 12.11 32.36 27.96 43.26 46.38h-253.4c10.9-18.42 25.7-34.27 43.26-46.38" fill="#aa7a63"/><path d="m220.279 458.12c-7.53 12.11-13.87 27.96-18.54 46.38h-72.41c10.9-18.42 25.7-34.27 43.26-46.38z" fill="#986b54"/><path d="m352.099 467.88h-192.14c11.95-10.31 25.57-18.73 40.4-24.8 7.92-3.24 16.19-5.82 24.73-7.64v-79.604h61.88v79.604c24.54 5.25 46.8 16.62 65.13 32.44z" fill="#ffddce"/><path d="m247.359 381.82v85.2h-47v-23.94c7.92-3.24 16.19-5.82 24.73-7.64v-53.62z" fill="#ffcbbe"/><path d="m181.405 406.168-10.828 35.742c-3.917 12.929 5.759 25.971 19.269 25.971h66.183z" fill="#986b54"/><path d="m330.652 406.168 10.828 35.742c3.917 12.929-5.759 25.971-19.269 25.971h-66.183z" fill="#aa7a63"/><path d="m410.915 251.28c7.117 7.117 18.986 7.337 25.968.088 6.772-7.03 6.692-18.219-.24-25.151l-25.867-25.866c5.996 1.609 12.66.077 17.365-4.629 7.013-7.013 7.013-18.383 0-25.396l-31.094-31.386c6.239 2.062 13.379.629 18.343-4.334 7.013-7.013 7.013-18.383 0-25.396l-60.584-60.705c-26.201-26.253-61.768-41.006-98.858-41.006-37.09 0-72.657 14.753-98.858 41.006l-60.584 60.705c-7.013 7.013-7.013 18.383 0 25.396 4.963 4.963 12.104 6.396 18.343 4.334l-31.094 31.386c-7.013 7.013-7.013 18.383 0 25.396 4.705 4.705 11.369 6.238 17.365 4.629l-25.534 25.534c-7.117 7.117-7.337 18.986-.088 25.968 7.03 6.772 18.219 6.691 25.151-.24" fill="#365e7d"/><path d="m202.436 18.161c16.8-6.97 34.97-10.66 53.51-10.66-6.3.02-12.48 3.71-18.19 10.66-5.73 6.97-11 17.22-15.47 30.35 0 0-54.038 125.252-25.01 147.21 3.967 3.001 3.88 6.24 5.92 4.63l-8.71 25.53c-2.38 7.01-2.5 18.61-.14 25.63l-93.69.1c-6.94 6.93-18.13 7.01-25.16.24-7.24-6.98-7.02-18.85.09-25.97l25.54-25.53c-6 1.61-12.66.08-17.37-4.63-7.01-7.01-7.01-18.38 0-25.39l31.1-31.39c-1.84.61-3.76.91-5.67.91-4.59 0-9.17-1.74-12.68-5.24-7.01-7.02-7.01-18.39 0-25.4l60.59-60.7c13.1-13.13 28.54-23.38 45.34-30.35z" fill="#2b4d66"/><g fill="#ffcbbe"><circle cx="118.509" cy="272.386" r="39.614"/><circle cx="393.555" cy="272.386" r="39.614"/></g><path d="m373.714 137.75v137.81c0 51.01-35.22 93.8-82.68 105.35-.02 0-.03.01-.05.01s-.04.01-.06.02c-8.22 2-16.81 3.06-25.65 3.06h-18.48c-59.89 0-108.45-48.55-108.45-108.44v-131.97c7.46 1.77 15.65-.25 21.48-6.07l14.59-14.59c.36 5.31 2.56 10.52 6.62 14.59 4.17 4.17 9.56 6.37 15.03 6.64-6.43 8.93-5.65 21.44 2.38 29.47h.01c2.85 2.85 6.26 4.79 9.88 5.81 7.71 2.2 16.36.26 22.44-5.81l50.7-50.7c.36 5.31 2.56 10.52 6.62 14.59 4.06 4.06 9.27 6.25 14.59 6.61l-1.31 1.31c-8.93 8.93-8.93 23.4 0 32.33 4.46 4.46 10.31 6.69 16.16 6.69s11.69-2.23 16.16-6.69z" fill="#ffddce"/><g fill="#ffcbbe"><path d="m291.034 380.91c-.02 0-.03.01-.05.01s-.04.01-.06.02c-8.22 2-16.81 3.06-25.65 3.06h-18.48c-59.89 0-108.45-48.55-108.45-108.44v-131.97c7.46 1.77 15.65-.25 21.48-6.07l14.59-14.59c.36 5.31 2.56 10.52 6.62 14.59 4.17 4.17 9.56 6.37 15.03 6.64-6.43 8.93-5.65 21.44 2.38 29.47h.01c2.85 2.85 6.26 4.79 9.88 5.81v96.12c0 51.02 35.24 93.81 82.7 105.35z"/><path d="m286.969 381.82v22.18c-7.01 1.42-14.27 2.17-21.7 2.17h-18.48c-7.43 0-14.69-.75-21.7-2.17v-22.18z"/></g></g><g><path d="m441.943 220.917-15.131-15.13c2.424-1.204 4.669-2.802 6.631-4.763 9.924-9.925 9.924-26.073.024-35.972l-19.92-20.105c2.604-1.229 5.024-2.917 7.146-5.033 4.808-4.808 7.456-11.202 7.456-18.003s-2.648-13.194-7.452-17.999l-60.589-60.699c-27.802-27.866-64.797-43.213-104.169-43.213-19.449 0-38.419 3.779-56.385 11.233-12.986 5.39-25.105 12.595-36.019 21.414-3.222 2.604-3.723 7.326-1.12 10.547 2.604 3.222 7.326 3.724 10.547 1.12 9.798-7.917 20.679-14.386 32.34-19.226 16.134-6.694 33.171-10.088 50.637-10.088 35.359 0 68.583 13.782 93.552 38.808l60.595 60.705c1.976 1.976 3.063 4.603 3.063 7.397s-1.088 5.421-3.058 7.391c-2.809 2.804-6.911 3.77-10.701 2.517-3.292-1.086-6.902.226-8.728 3.173-1.826 2.948-1.393 6.764 1.048 9.228l31.125 31.415c4.076 4.076 4.076 10.708 0 14.784-2.628 2.628-6.505 3.659-10.123 2.689-3.277-.88-6.739.552-8.438 3.493-1.698 2.94-1.21 6.654 1.19 9.054l25.87 25.87c3.756 3.756 4.041 9.776.805 13.88-8.528-12.162-22.641-20.135-38.59-20.135-4.185 0-8.336.562-12.342 1.648v-89.167c0-3.034-1.827-5.768-4.63-6.929s-6.028-.518-8.174 1.626l-40.02 40.02c-2.897 2.897-6.749 4.493-10.847 4.493-4.11 0-7.969-1.596-10.866-4.493-5.989-5.989-5.989-15.734-.001-21.723l1.311-1.31c2.08-2.08 2.753-5.184 1.72-7.938s-3.58-4.651-6.516-4.85c-3.71-.251-7.183-1.822-9.777-4.424-2.625-2.63-4.204-6.105-4.446-9.785-.193-2.938-2.087-5.49-4.843-6.527-2.753-1.038-5.862-.366-7.944 1.716l-50.697 50.697c-5.994 5.987-15.74 5.989-21.727.003-.063-.063-.127-.125-.192-.185-5.17-5.343-5.776-13.542-1.415-19.599 1.605-2.23 1.863-5.16.671-7.636s-3.643-4.102-6.387-4.237c-3.829-.189-7.41-1.769-10.081-4.446-2.617-2.623-4.2-6.109-4.458-9.815-.205-2.932-2.102-5.474-4.854-6.503-2.751-1.028-5.852-.356-7.931 1.722l-14.59 14.59c-3.796 3.796-9.192 5.319-14.436 4.076-2.232-.531-4.583-.009-6.382 1.414-1.799 1.422-2.849 3.59-2.849 5.884v83.325c-4.005-1.085-8.156-1.646-12.342-1.646-15.992 0-30.14 8.016-38.661 20.234-1.395-1.751-2.171-3.95-2.194-6.327-.028-2.996 1.15-5.911 3.229-7.993l25.54-25.53c2.401-2.4 2.891-6.114 1.193-9.055-1.698-2.94-5.161-4.374-8.438-3.493-3.672.983-7.454-.021-10.123-2.689-1.974-1.974-3.061-4.599-3.061-7.392 0-2.792 1.087-5.417 3.086-7.416l31.1-31.39c2.441-2.465 2.875-6.283 1.046-9.231-1.828-2.948-5.439-4.258-8.734-3.167-1.06.351-2.173.529-3.31.529-2.789 0-5.411-1.083-7.373-3.04-4.078-4.083-4.08-10.721.001-14.802l49.99-50.09c2.926-2.932 2.921-7.681-.011-10.606-2.932-2.927-7.681-2.921-10.606.011l-49.984 50.084c-9.92 9.92-9.922 26.071.007 36.014 2.109 2.103 4.521 3.791 7.14 5.023l-19.897 20.083c-4.807 4.807-7.455 11.199-7.455 17.999s2.647 13.191 7.455 17.999c1.961 1.961 4.205 3.558 6.627 4.762l-14.801 14.795c-4.908 4.915-7.685 11.745-7.618 18.739.065 6.881 2.775 13.249 7.626 17.927.899.868 1.868 1.659 2.882 2.383-1.143 4.059-1.768 8.333-1.768 12.753 0 25.979 21.135 47.113 47.113 47.113 6.783 0 13.34-1.425 19.374-4.157 12.984 35.434 42.797 62.819 79.708 72.432v10.899l-36.18.011c-.726 0-1.455.091-2.168.306-2.403.725-4.285 2.604-5.013 5.006l-10.829 35.743c-1.601 5.285-1.596 10.75-.083 15.839-16.212 12.184-30.121 27.665-40.442 45.105-1.372 2.318-1.395 5.195-.061 7.535s3.821 3.785 6.515 3.785h253.4c2.694 0 5.181-1.445 6.516-3.785 1.334-2.34 1.311-5.216-.062-7.535-10.32-17.44-24.23-32.921-40.442-45.105 1.513-5.089 1.518-10.555-.083-15.84l-10.829-35.742c-.728-2.402-2.609-4.281-5.013-5.006-.713-.215-1.443-.307-2.168-.306l-36.18-.011v-10.884c13.975-3.619 27.184-9.837 39.073-18.52 3.345-2.443 4.076-7.135 1.633-10.48-2.442-3.345-7.133-4.075-10.48-1.633-17.33 12.657-37.876 19.347-59.416 19.347h-18.48c-55.664 0-100.95-45.281-100.95-100.94v-123.91c7.18-.502 14.004-3.558 19.273-8.828l5.978-5.978c1.28 2.161 2.831 4.169 4.629 5.972 2.784 2.791 6.057 4.981 9.631 6.487-2.916 10.301-.204 21.65 7.776 29.629.086.086.175.17.265.252 11.852 11.578 30.919 11.496 42.682-.252l42.08-42.079c1.278 2.155 2.829 4.16 4.628 5.962 2.205 2.211 4.725 4.048 7.461 5.465-5.518 11.325-3.579 25.396 5.814 34.792 5.731 5.73 13.357 8.887 21.474 8.887 8.104 0 15.723-3.156 21.454-8.887l27.216-27.216v119.703c0 22.793-7.412 44.303-21.434 62.206-2.555 3.261-1.981 7.975 1.279 10.529 3.262 2.555 7.975 1.981 10.529-1.28 7.614-9.72 13.508-20.374 17.632-31.663 6.03 2.723 12.574 4.144 19.335 4.144 25.979 0 47.113-21.135 47.113-47.113 0-4.458-.636-8.768-1.798-12.859 1.226-.878 2.373-1.863 3.416-2.951 9.556-9.921 9.405-25.916-.335-35.656zm-224.354 205.442-15.344-12.689h15.344zm-39.834 17.726 7.56-24.952 49.877 41.249h-45.345c-4.041 0-7.739-1.861-10.146-5.106-2.409-3.245-3.118-7.324-1.946-11.191zm191.047 52.915h-225.546c7.937-10.837 17.464-20.556 28.111-28.703 5.02 4.547 11.514 7.084 18.479 7.084h24.22v9.136c0 4.142 3.358 7.5 7.5 7.5s7.5-3.358 7.5-7.5v-9.136h26.963 26.963v9.136c0 4.142 3.357 7.5 7.5 7.5s7.5-3.358 7.5-7.5v-9.136h24.22c6.966 0 13.46-2.538 18.48-7.084 10.646 8.147 20.172 17.866 28.11 28.703zm-34.499-52.916c1.172 3.867.463 7.946-1.945 11.191-2.407 3.245-6.105 5.106-10.146 5.106h-45.346l49.878-41.249zm-24.491-30.414-15.343 12.689v-12.689zm-44.533-22.17c4.779 0 9.514-.294 14.19-.862v44.802c0 1.005.205 1.968.57 2.853l-24.011 19.857-24.01-19.857c.365-.885.57-1.848.57-2.853v-44.812c4.658.572 9.4.872 14.21.872zm-146.772-87.004c-17.708 0-32.113-14.406-32.113-32.113s14.406-32.113 32.113-32.113c4.252 0 8.451.843 12.342 2.459v16.768c-3.004-1.224-6.319-2.037-9.927-2.399-7.457-.749-13.556.674-14.228.839-4.023.987-6.483 5.048-5.496 9.071.987 4.022 5.046 6.482 9.071 5.496.04-.01 4.271-.972 9.153-.482 5.259.529 9.022 2.419 11.454 5.755.148 7.863 1.084 15.536 2.73 22.946-4.614 2.472-9.752 3.773-15.099 3.773zm275.043 0c-5.327 0-10.456-1.296-15.073-3.762 1.64-7.455 2.539-15.12 2.685-22.923 2.375-3.279 6.028-5.168 11.121-5.751 5.019-.573 9.403.419 9.542.451 4.015.964 8.056-1.491 9.041-5.504.987-4.023-1.474-8.084-5.497-9.071-.67-.165-6.771-1.587-14.228-.839-3.611.363-6.928 1.177-9.934 2.402v-16.766c3.893-1.619 8.091-2.463 12.342-2.463 17.707 0 32.113 14.406 32.113 32.113s-14.405 32.113-32.112 32.113z"/><path d="m200.137 232.62c-7.236 0-13.123 8.065-13.123 17.979s5.887 17.979 13.123 17.979 13.123-8.065 13.123-17.979-5.888-17.979-13.123-17.979z"/><path d="m311.927 232.62c-7.235 0-13.122 8.065-13.122 17.979s5.887 17.979 13.122 17.979c7.236 0 13.123-8.065 13.123-17.979s-5.887-17.979-13.123-17.979z"/><path d="m222.31 217.24c2.929-2.929 2.929-7.678 0-10.606-5.716-5.716-13.315-8.864-21.398-8.864s-15.683 3.148-21.398 8.864c-2.929 2.929-2.929 7.678 0 10.606 2.929 2.929 7.678 2.929 10.606 0 5.951-5.95 15.632-5.95 21.583 0 1.464 1.464 3.384 2.197 5.303 2.197s3.84-.733 5.304-2.197z"/><path d="m333.68 217.24c2.93-2.929 2.93-7.677.001-10.606-5.716-5.716-13.315-8.864-21.398-8.864s-15.683 3.148-21.398 8.864c-2.929 2.929-2.929 7.678.001 10.606 2.928 2.93 7.677 2.929 10.606 0 2.882-2.883 6.715-4.47 10.791-4.47s7.909 1.587 10.791 4.47c1.465 1.465 3.384 2.197 5.304 2.197 1.918 0 3.838-.733 5.302-2.197z"/><path d="m271.893 276.444c-2.063 6.948-8.586 11.801-15.861 11.801-7.267 0-13.791-4.856-15.863-11.81-1.184-3.969-5.36-6.228-9.331-5.044-3.969 1.184-6.228 5.361-5.044 9.331 3.954 13.261 16.388 22.523 30.238 22.523 13.866 0 26.301-9.266 30.24-22.532 1.18-3.971-1.084-8.146-5.055-9.325-3.97-1.177-8.146 1.085-9.324 5.056z"/></g></g></svg>