<svg clip-rule="evenodd" fill-rule="evenodd" height="512" stroke-linejoin="round" stroke-miterlimit="2" viewBox="0 0 48 48" width="512" xmlns="http://www.w3.org/2000/svg"><g transform="translate(-336 -240)"><g id="Icon"><g transform="matrix(1 0 0 1.1 0 -28.6)"><path d="m379 249.636c0-2.51-2.239-4.545-5-4.545-6.926 0-21.074 0-28 0-2.761 0-5 2.035-5 4.545v32.728c0 2.51 2.239 4.545 5 4.545h28c2.761 0 5-2.035 5-4.545zm-2 0v32.728c0 1.506-1.343 2.727-3 2.727h-28c-1.657 0-3-1.221-3-2.727 0-7.607 0-25.121 0-32.728 0-1.506 1.343-2.727 3-2.727h28c1.657 0 3 1.221 3 2.727z"/></g><g transform="translate(0 2)"><path d="m358 251h14c.552 0 1-.448 1-1s-.448-1-1-1h-14c-.552 0-1 .448-1 1s.448 1 1 1z"/></g><g transform="translate(0 12)"><path d="m358 251h14c.552 0 1-.448 1-1s-.448-1-1-1h-14c-.552 0-1 .448-1 1s.448 1 1 1z"/></g><g transform="translate(0 22)"><path d="m358 251h14c.552 0 1-.448 1-1s-.448-1-1-1h-14c-.552 0-1 .448-1 1s.448 1 1 1z"/></g><g transform="translate(0 2)"><path d="m347.293 252.707 2 2c.39.391 1.024.391 1.414 0l4-4c.39-.39.39-1.024 0-1.414s-1.024-.39-1.414 0l-3.293 3.293s-1.293-1.293-1.293-1.293c-.39-.39-1.024-.39-1.414 0s-.39 1.024 0 1.414z"/></g><g transform="translate(0 12)"><path d="m347.293 252.707 2 2c.39.391 1.024.391 1.414 0l4-4c.39-.39.39-1.024 0-1.414s-1.024-.39-1.414 0l-3.293 3.293s-1.293-1.293-1.293-1.293c-.39-.39-1.024-.39-1.414 0s-.39 1.024 0 1.414z"/></g><g transform="translate(0 22)"><path d="m347.293 252.707 2 2c.39.391 1.024.391 1.414 0l4-4c.39-.39.39-1.024 0-1.414s-1.024-.39-1.414 0l-3.293 3.293s-1.293-1.293-1.293-1.293c-.39-.39-1.024-.39-1.414 0s-.39 1.024 0 1.414z"/></g><g transform="translate(0 2)"><path d="m358 255h14c.552 0 1-.448 1-1s-.448-1-1-1h-14c-.552 0-1 .448-1 1s.448 1 1 1z"/></g><g transform="translate(0 12)"><path d="m358 255h14c.552 0 1-.448 1-1s-.448-1-1-1h-14c-.552 0-1 .448-1 1s.448 1 1 1z"/></g><g transform="translate(0 22)"><path d="m358 255h14c.552 0 1-.448 1-1s-.448-1-1-1h-14c-.552 0-1 .448-1 1s.448 1 1 1z"/></g></g></g></svg>