<svg fill="none" height="512" viewBox="0 0 24 24" width="512" xmlns="http://www.w3.org/2000/svg"><g clip-rule="evenodd" fill="rgb(0,0,0)" fill-rule="evenodd"><path d="m7.19535 4.38826c-.33167.20984-.64877.44082-.94938.69107l.39665.88358c.63278 1.40956-.50365 2.97371-2.03975 2.80748l-.96539-.10447c-.14413.36113-.2655.73377-.36238 1.11618l.84218.4828c1.34044.7684 1.34044 2.7018 0 3.4702l-.84218.4828c.09688.3824.21825.755.36238 1.1162l.96539-.1045c1.5361-.1662 2.67253 1.3979 2.03975 2.8075l-.39665.8836c.30061.2502.61771.4812.94938.691l.71856-.651c1.14503-1.0373 2.98379-.4399 3.30039 1.0724l.1985.9481c.194.0125.3898.0188.5872.0188s.3932-.0063.5872-.0188l.1985-.9481c.3166-1.5123 2.1554-2.1097 3.3004-1.0724l.7186.651c.3316-.2098.6487-.4408.9493-.691l-.3966-.8836c-.6328-1.4096.5036-2.9737 2.0397-2.8075l.9654.1045c.1442-.3612.2655-.7338.3624-1.1162l-.8422-.4828c-1.3404-.7684-1.3404-2.7018 0-3.4702l.8422-.4828c-.0969-.38241-.2182-.75505-.3624-1.11618l-.9654.10447c-1.5361.16623-2.6725-1.39792-2.0397-2.80748l.3966-.88358c-.3006-.25024-.6177-.48123-.9493-.69107l-.7186.651c-1.145 1.03739-2.9838.43993-3.3004-1.07236l-.1985-.94808c-.194-.01248-.3898-.01882-.5872-.01882s-.3932.00634-.5872.01882l-.1985.94808c-.3166 1.5123-2.15536 2.10975-3.30039 1.07236zm.6504-.76012c-.31195-.28263-.7702-.34376-1.12744-.12113-.40859.25464-.79746.53793-1.1638.84708-.32142.27123-.40457.7255-.23233 1.10917l.40815.90919c.31639.70478-.25182 1.48686-1.01987 1.40375l-.99361-.10753c-.41792-.04522-.82415.17397-.98263.56331-.17993.44201-.32916.89979-.44502 1.3707-.10039.40802.09942.82392.46396 1.03292l.86678.4968c.67023.3842.67023 1.351 0 1.7352l-.86678.4968c-.36454.209-.56435.6249-.46396 1.0329.11586.4709.26509.9287.44502 1.3707.15848.3894.56471.6086.98263.5633l.9936-.1075c.76806-.0831 1.33627.699 1.01988 1.4037l-.40815.9092c-.17224.3837-.08909.838.23233 1.1092.36634.3092.75521.5925 1.1638.8471.35724.2226.81549.1615 1.12744-.1211l.73957-.6701c.57252-.5187 1.49188-.2199 1.65018.5362l.2043.9758c.0863.4121.4212.7309.8413.7608.2374.0168.4772.0254.7189.0254s.4815-.0086.7189-.0254c.4201-.0299.755-.3487.8413-.7608l.2043-.9758c.1583-.7561 1.0777-1.0549 1.6502-.5362l.7396.6701c.3119.2826.7702.3437 1.1274.1211.4086-.2546.7975-.5379 1.1638-.8471.3214-.2712.4046-.7255.2323-1.1092l-.4081-.9092c-.3164-.7047.2518-1.4868 1.0199-1.4037l.9936.1075c.4179.0453.8241-.1739.9826-.5633.1799-.442.3291-.8998.445-1.3707.1004-.408-.0994-.8239-.464-1.0329l-.8667-.4968c-.6703-.3842-.6703-1.351 0-1.7352l.8667-.4968c.3646-.209.5644-.6249.464-1.03292-.1159-.47091-.2651-.92869-.445-1.3707-.1585-.38934-.5647-.60853-.9826-.56331l-.9936.10753c-.7681.08311-1.3363-.69897-1.0199-1.40375l.4081-.90918c.1723-.38368.0891-.83795-.2323-1.10918-.3663-.30915-.7552-.59244-1.1638-.84708-.3572-.22263-.8155-.1615-1.1274.12113l-.7396.67004c-.5725.51869-1.4919.21997-1.6502-.53618l-.2043-.97575c-.0863-.41215-.4212-.73097-.8413-.7608-.2374-.01687-.4772-.02545-.7189-.02545s-.4815.00858-.7189.02545c-.4201.02983-.755.34865-.8413.7608l-.2043.97575c-.1583.75615-1.07766 1.05487-1.65018.53618z"/><path d="m7.01928 11.2038c.04542-.2841.33393-.4489.61183-.3744.27791.0744.4392.3601.40143.6453-.1074.8112.03604 1.6405.41779 2.3736.4624.888 1.24084 1.5705 2.18177 1.9127.9408.3422 1.9758.3193 2.9007-.0641.9248-.3835 1.6723-1.0996 2.095-2.0072.4228-.9076.4899-1.9406.1883-2.8953-.3016-.95467-.95-1.76163-1.8174-2.26164-.8674-.5-1.8907-.65674-2.868-.43927-.8068.17954-1.53392.60337-2.08573 1.20755-.19403.21243-.51651.27282-.75233.10801-.23583-.16481-.29531-.49171-.10707-.70929.70549-.81544 1.65741-1.38709 2.71883-1.62328 1.2317-.27408 2.5214-.07654 3.6146.55364s1.9105 1.64722 2.2906 2.85038c.3801 1.2033.2955 2.5053-.2373 3.6491-.5327 1.1438-1.4749 2.0465-2.6405 2.5297-1.1656.4833-2.47.5121-3.6559.0808-1.1858-.4313-2.1669-1.2914-2.74967-2.4106-.50221-.9644-.67718-2.0609-.50695-3.1257z"/></g></svg>